<svg width="282" height="262" viewBox="0 0 282 262" fill="none" xmlns="http://www.w3.org/2000/svg">
<path opacity="0.1" d="M124.164 126.842C125.444 124.229 127.625 122.167 130.306 121.034C132.986 119.901 135.985 119.774 138.752 120.676C141.518 121.578 143.866 123.449 145.363 125.945C146.86 128.44 147.405 131.392 146.899 134.258C148.444 132.318 149.624 130.272 150.279 128.298C150.297 128.243 150.318 128.189 150.341 128.137C146.731 122.765 145.358 116.197 146.515 109.829C147.086 106.611 148.293 103.539 150.065 100.793C151.838 98.0468 154.14 95.6818 156.837 93.8363C157.205 93.5828 157.658 93.4846 158.098 93.5632C158.538 93.6417 158.929 93.8906 159.187 94.2558C161.07 96.915 162.403 99.9238 163.106 103.105C163.81 106.287 163.871 109.577 163.285 112.782C162.713 116.025 161.501 119.121 159.72 121.891C164.18 120.252 169.016 119.923 173.656 120.943C178.297 121.962 182.55 124.287 185.913 127.644C186.231 127.962 186.41 128.393 186.41 128.843C186.41 129.293 186.231 129.725 185.913 130.043C181.55 134.414 175.716 137.005 169.548 137.311C163.379 137.616 157.318 135.615 152.544 131.696C151.847 133.116 151.016 134.465 150.062 135.727C152.793 135.596 155.486 136.396 157.703 137.995C159.92 139.594 161.529 141.897 162.266 144.529C163.004 147.161 162.827 149.965 161.765 152.483C160.702 155.002 158.817 157.085 156.417 158.393C157.623 160.357 158.246 162.622 158.216 164.926C158.191 168.072 156.929 171.081 154.702 173.303C152.772 175.228 150.25 176.444 147.543 176.756C144.835 177.068 142.102 176.457 139.786 175.021C139.32 175.763 138.775 176.45 138.159 177.072C136.11 179.116 133.395 180.358 130.508 180.571C127.621 180.785 124.753 179.957 122.425 178.237C121.839 179.35 121.086 180.368 120.192 181.253C119.07 182.375 117.738 183.265 116.273 183.872C114.807 184.479 113.236 184.792 111.649 184.792C110.063 184.792 108.491 184.479 107.026 183.872C105.56 183.265 104.228 182.375 103.106 181.253C101.984 180.131 101.094 178.799 100.487 177.334C99.88 175.868 99.5675 174.297 99.5675 172.71C99.5675 171.124 99.88 169.552 100.487 168.087C101.094 166.621 101.984 165.289 103.106 164.167C103.842 163.436 104.673 162.807 105.576 162.297C103.502 159.996 102.389 156.988 102.467 153.891C102.546 150.794 103.809 147.846 105.997 145.653C106.707 144.953 107.508 144.352 108.378 143.865C106.965 141.551 106.37 138.829 106.688 136.135C107.007 133.442 108.222 130.934 110.137 129.014C111.937 127.202 114.27 126.015 116.794 125.624C119.318 125.233 121.9 125.66 124.164 126.842ZM141.15 126.022C139.935 124.807 138.387 123.98 136.701 123.645C135.016 123.309 133.269 123.481 131.682 124.139C130.094 124.796 128.737 125.91 127.782 127.339C126.828 128.768 126.318 130.447 126.318 132.166C126.318 133.884 126.828 135.564 127.782 136.993C128.737 138.421 130.094 139.535 131.681 140.193C133.269 140.85 135.016 141.022 136.701 140.687C138.387 140.352 139.935 139.524 141.15 138.309C142.777 136.679 143.69 134.469 143.69 132.166C143.69 129.862 142.777 127.653 141.15 126.022ZM126.519 157.838C128.15 159.465 130.359 160.378 132.663 160.378C134.966 160.378 137.175 159.465 138.806 157.838C139.658 156.961 140.331 155.927 140.788 154.793C139.844 153.462 139.178 151.955 138.831 150.361C138.484 148.766 138.463 147.118 138.769 145.516C138.512 145.261 138.239 145.024 137.951 144.806C137.749 144.723 137.565 144.601 137.41 144.448C137.399 144.437 137.389 144.424 137.379 144.412C137.199 144.3 137.017 144.197 136.832 144.101C134.652 144.433 132.424 144.165 130.385 143.326C128.928 143.727 127.598 144.493 126.519 145.551C124.892 147.182 123.979 149.391 123.979 151.694C123.979 153.998 124.892 156.207 126.519 157.838ZM159.946 112.185C160.857 107.196 159.94 102.047 157.363 97.68C153.409 100.889 150.743 105.416 149.854 110.43C148.942 115.446 149.846 120.623 152.404 125.033C156.382 121.798 159.06 117.236 159.946 112.185ZM182.212 128.842C178.327 125.558 173.404 123.757 168.317 123.757C163.23 123.757 158.308 125.558 154.423 128.842C158.308 132.125 163.231 133.927 168.317 133.927C173.404 133.927 178.327 132.125 182.212 128.842ZM156.774 141.646C155.559 140.431 154.011 139.604 152.325 139.268C150.64 138.933 148.893 139.105 147.305 139.763C145.718 140.42 144.361 141.534 143.406 142.963C142.451 144.391 141.942 146.071 141.942 147.789C141.942 149.508 142.451 151.188 143.406 152.616C144.361 154.045 145.718 155.159 147.305 155.816C148.893 156.474 150.64 156.646 152.325 156.311C154.01 155.976 155.558 155.148 156.773 153.933C158.4 152.302 159.314 150.093 159.314 147.79C159.314 145.486 158.401 143.277 156.774 141.646ZM152.302 170.903C153.771 169.431 154.663 167.481 154.818 165.408C154.972 163.334 154.378 161.274 153.144 159.6C151.441 159.962 149.681 159.952 147.983 159.571C146.284 159.19 144.689 158.447 143.304 157.392C142.746 158.438 142.039 159.396 141.206 160.238C140.217 161.229 139.063 162.039 137.796 162.632C137.314 164.472 137.453 166.42 138.191 168.174C138.929 169.927 140.225 171.388 141.878 172.331C143.53 173.273 145.448 173.644 147.332 173.385C149.217 173.127 150.964 172.255 152.303 170.903L152.302 170.903ZM135.76 174.671C136.306 174.117 136.776 173.492 137.157 172.814C136.062 171.575 135.233 170.125 134.721 168.553C134.209 166.981 134.024 165.32 134.179 163.674C132.577 163.878 130.951 163.758 129.396 163.322C127.841 162.887 126.389 162.143 125.127 161.137C124.525 161.482 123.97 161.901 123.473 162.385C121.844 164.014 120.929 166.224 120.929 168.528C120.929 170.833 121.844 173.042 123.473 174.672C125.103 176.301 127.313 177.216 129.617 177.216C131.921 177.216 134.131 176.301 135.76 174.672L135.76 174.671ZM105.506 178.853C107.136 180.48 109.346 181.393 111.649 181.393C113.952 181.393 116.162 180.479 117.792 178.853C118.719 177.957 119.424 176.857 119.851 175.641C118.834 174.241 118.129 172.639 117.784 170.942C117.439 169.246 117.462 167.496 117.851 165.809C116.29 166.252 114.656 166.377 113.047 166.177C111.437 165.977 109.883 165.456 108.478 164.646C107.37 165.082 106.359 165.735 105.506 166.566C103.879 168.196 102.965 170.406 102.965 172.709C102.965 175.012 103.879 177.221 105.505 178.852L105.506 178.853ZM108.396 160.338C110.027 161.965 112.236 162.879 114.54 162.879C116.843 162.879 119.052 161.965 120.683 160.338C121.376 159.656 121.937 158.851 122.337 157.964C120.794 155.413 120.246 152.382 120.797 149.452C118.986 149.76 117.128 149.657 115.362 149.151C113.596 148.645 111.966 147.749 110.593 146.528C109.782 146.911 109.04 147.426 108.397 148.051C106.77 149.682 105.856 151.891 105.856 154.195C105.856 156.498 106.769 158.708 108.396 160.338L108.396 160.338ZM112.537 143.699C113.798 144.942 115.404 145.777 117.147 146.094C118.889 146.411 120.686 146.196 122.305 145.477C122.812 144.631 123.422 143.85 124.12 143.153C124.819 142.455 125.604 141.849 126.455 141.349C126.526 141.202 126.594 141.051 126.658 140.895C126.593 140.833 126.527 140.774 126.463 140.71C125.098 139.344 124.081 137.671 123.497 135.832C122.912 133.992 122.777 132.039 123.103 130.136C121.29 129.045 119.139 128.656 117.058 129.043C114.977 129.429 113.109 130.565 111.808 132.234C110.507 133.904 109.863 135.993 109.997 138.105C110.131 140.218 111.034 142.208 112.535 143.7L112.537 143.699Z" fill="white"/>
<path d="M126.997 130.449C128.024 128.352 129.774 126.697 131.924 125.788C134.075 124.879 136.481 124.777 138.701 125.501C140.92 126.225 142.804 127.726 144.005 129.728C145.206 131.73 145.643 134.099 145.237 136.398C146.477 134.841 147.424 133.2 147.949 131.616C147.963 131.572 147.98 131.529 147.999 131.487C145.102 127.177 144.001 121.908 144.929 116.798C145.387 114.216 146.356 111.752 147.778 109.549C149.2 107.346 151.047 105.448 153.211 103.967C153.506 103.764 153.87 103.685 154.223 103.748C154.576 103.811 154.889 104.011 155.096 104.304C156.607 106.437 157.676 108.851 158.241 111.404C158.805 113.957 158.854 116.596 158.384 119.168C157.925 121.769 156.953 124.253 155.524 126.476C159.102 125.161 162.982 124.897 166.705 125.715C170.429 126.533 173.84 128.398 176.539 131.091C176.794 131.347 176.937 131.693 176.937 132.054C176.937 132.415 176.794 132.761 176.539 133.017C173.038 136.524 168.358 138.602 163.409 138.847C158.46 139.093 153.597 137.487 149.767 134.343C149.207 135.482 148.541 136.565 147.775 137.576C149.966 137.472 152.127 138.113 153.906 139.396C155.684 140.679 156.975 142.527 157.567 144.639C158.159 146.75 158.017 149 157.164 151.021C156.312 153.041 154.799 154.712 152.874 155.762C153.841 157.337 154.342 159.155 154.317 161.003C154.297 163.527 153.285 165.942 151.498 167.725C149.95 169.268 147.926 170.244 145.754 170.495C143.582 170.745 141.389 170.255 139.53 169.103C139.157 169.698 138.72 170.249 138.226 170.748C136.581 172.388 134.403 173.384 132.087 173.556C129.771 173.727 127.47 173.063 125.602 171.683C125.132 172.576 124.528 173.393 123.81 174.103C122.91 175.003 121.841 175.717 120.665 176.204C119.489 176.691 118.229 176.942 116.956 176.942C115.683 176.942 114.423 176.691 113.247 176.204C112.07 175.717 111.002 175.003 110.102 174.103C109.202 173.203 108.488 172.134 108.001 170.958C107.513 169.782 107.263 168.522 107.263 167.249C107.263 165.976 107.513 164.715 108.001 163.539C108.488 162.363 109.202 161.295 110.102 160.395C110.692 159.808 111.359 159.303 112.084 158.894C110.419 157.048 109.527 154.634 109.589 152.15C109.652 149.666 110.666 147.3 112.421 145.54C112.991 144.979 113.634 144.497 114.332 144.106C113.198 142.249 112.72 140.065 112.976 137.904C113.232 135.744 114.206 133.731 115.743 132.19C117.187 130.737 119.059 129.784 121.084 129.471C123.108 129.158 125.18 129.5 126.997 130.449ZM140.625 129.791C139.65 128.816 138.408 128.152 137.056 127.883C135.704 127.614 134.302 127.752 133.028 128.279C131.755 128.807 130.666 129.7 129.9 130.847C129.134 131.993 128.725 133.341 128.725 134.719C128.725 136.098 129.134 137.446 129.9 138.592C130.666 139.739 131.754 140.632 133.028 141.16C134.302 141.687 135.703 141.825 137.056 141.556C138.408 141.287 139.65 140.623 140.625 139.649C141.93 138.34 142.663 136.568 142.663 134.72C142.663 132.872 141.93 131.099 140.625 129.791ZM128.887 155.316C130.195 156.622 131.967 157.355 133.815 157.355C135.663 157.355 137.436 156.622 138.744 155.316C139.428 154.613 139.968 153.783 140.335 152.873C139.577 151.806 139.043 150.596 138.764 149.317C138.486 148.038 138.469 146.716 138.714 145.43C138.508 145.226 138.289 145.036 138.058 144.861C137.896 144.794 137.749 144.697 137.624 144.574C137.615 144.565 137.608 144.554 137.599 144.545C137.455 144.455 137.309 144.372 137.161 144.296C135.412 144.561 133.624 144.346 131.988 143.673C130.819 143.995 129.752 144.609 128.887 145.459C127.581 146.767 126.848 148.54 126.848 150.388C126.848 152.236 127.581 154.008 128.887 155.316ZM155.705 118.688C156.436 114.686 155.701 110.555 153.632 107.051C150.46 109.626 148.322 113.258 147.608 117.281C146.876 121.305 147.601 125.459 149.654 128.997C152.846 126.401 154.995 122.741 155.705 118.688ZM173.569 132.053C170.452 129.418 166.503 127.973 162.422 127.973C158.34 127.973 154.391 129.418 151.274 132.053C154.391 134.687 158.34 136.133 162.422 136.133C166.503 136.133 170.452 134.687 173.569 132.053ZM153.16 142.326C152.185 141.351 150.943 140.687 149.591 140.418C148.239 140.149 146.837 140.287 145.563 140.815C144.29 141.342 143.201 142.236 142.435 143.382C141.669 144.528 141.26 145.876 141.26 147.255C141.26 148.633 141.669 149.981 142.435 151.127C143.201 152.274 144.289 153.167 145.563 153.695C146.837 154.222 148.239 154.36 149.591 154.091C150.943 153.822 152.185 153.159 153.16 152.184C154.465 150.875 155.198 149.103 155.198 147.255C155.198 145.407 154.465 143.634 153.16 142.326ZM149.573 165.799C150.751 164.618 151.467 163.054 151.591 161.39C151.715 159.726 151.238 158.073 150.247 156.731C148.882 157.021 147.469 157.013 146.107 156.707C144.744 156.401 143.464 155.805 142.353 154.959C141.905 155.798 141.338 156.567 140.67 157.242C139.877 158.037 138.951 158.687 137.934 159.163C137.547 160.64 137.659 162.202 138.251 163.609C138.843 165.016 139.883 166.188 141.209 166.944C142.535 167.7 144.073 167.998 145.585 167.791C147.097 167.583 148.499 166.883 149.573 165.799L149.573 165.799ZM136.3 168.822C136.738 168.377 137.115 167.876 137.421 167.332C136.543 166.338 135.878 165.175 135.467 163.913C135.056 162.652 134.908 161.32 135.032 159.999C133.747 160.162 132.442 160.067 131.194 159.717C129.947 159.367 128.782 158.771 127.769 157.963C127.287 158.24 126.841 158.576 126.443 158.965C125.136 160.272 124.401 162.045 124.401 163.894C124.401 165.742 125.136 167.515 126.443 168.823C127.75 170.13 129.523 170.864 131.372 170.864C133.22 170.864 134.993 170.13 136.3 168.823L136.3 168.822ZM112.027 172.177C113.335 173.482 115.108 174.215 116.956 174.215C118.804 174.215 120.577 173.482 121.885 172.177C122.628 171.458 123.194 170.576 123.537 169.601C122.721 168.477 122.155 167.191 121.878 165.831C121.601 164.47 121.62 163.065 121.932 161.712C120.679 162.067 119.369 162.168 118.077 162.007C116.786 161.847 115.539 161.429 114.412 160.779C113.523 161.129 112.712 161.652 112.027 162.319C110.722 163.627 109.989 165.4 109.989 167.248C109.989 169.096 110.722 170.868 112.027 172.176L112.027 172.177ZM114.346 157.323C115.654 158.628 117.427 159.361 119.275 159.361C121.123 159.361 122.896 158.628 124.204 157.323C124.76 156.775 125.21 156.13 125.531 155.418C124.293 153.371 123.853 150.94 124.296 148.589C122.842 148.836 121.352 148.753 119.935 148.347C118.518 147.941 117.21 147.222 116.108 146.242C115.458 146.55 114.862 146.963 114.346 147.465C113.041 148.773 112.308 150.545 112.308 152.394C112.308 154.242 113.041 156.014 114.346 157.323L114.346 157.323ZM117.668 143.973C118.68 144.97 119.969 145.64 121.367 145.894C122.765 146.149 124.207 145.976 125.505 145.4C125.912 144.721 126.401 144.094 126.961 143.534C127.522 142.975 128.152 142.488 128.835 142.087C128.892 141.969 128.946 141.848 128.998 141.723C128.946 141.674 128.892 141.626 128.841 141.574C127.746 140.479 126.93 139.137 126.461 137.661C125.992 136.185 125.884 134.618 126.146 133.091C124.691 132.216 122.965 131.904 121.295 132.214C119.626 132.524 118.127 133.435 117.084 134.775C116.04 136.114 115.523 137.79 115.63 139.485C115.738 141.18 116.462 142.777 117.667 143.974L117.668 143.973Z" fill="white"/>
<circle opacity="0.8" cx="140.535" cy="146.737" r="68.1293" stroke="#E83939" strokeWidth="12"/>
<circle opacity="0.5" cx="49.1916" cy="67.2203" r="8.9587" stroke="#E83939" strokeWidth="7"/>
<circle opacity="0.5" cx="233.863" cy="72.8295" r="13.0679" stroke="#E83939" strokeWidth="10"/>
<circle opacity="0.5" cx="49.1917" cy="178.345" r="13.0679" stroke="#E83939" strokeWidth="10"/>
<circle opacity="0.5" cx="244.15" cy="199.167" r="9.25868" stroke="#E83939" strokeWidth="7"/>
<circle opacity="0.3" cx="10.4428" cy="89.9431" r="3.37689" stroke="white" strokeWidth="3"/>
<circle opacity="0.3" cx="274.286" cy="115.137" r="3.37689" stroke="white" strokeWidth="3"/>
<circle opacity="0.3" cx="174.197" cy="4.66094" r="3.16094" stroke="white" strokeWidth="3"/>
<circle opacity="0.4" cx="116.125" cy="238.781" r="6.35956" stroke="white" strokeWidth="5"/>
<circle opacity="0.4" cx="150.248" cy="45.902" r="6.35956" stroke="white" strokeWidth="5"/>
<circle opacity="0.8" cx="241.82" cy="149.99" r="8.58261" fill="#E83939"/>
<circle opacity="0.1" cx="202.298" cy="238.781" r="17.2187" fill="white"/>
<circle opacity="0.8" cx="3.81841" cy="3.81841" r="3.81841" transform="matrix(1 0 0 -1 48.8944 141.407)" fill="#E83939"/>
<circle opacity="0.8" cx="8.24813" cy="8.24813" r="8.24813" transform="matrix(1 0 0 -1 186.471 53.5387)" fill="#E83939"/>
<circle opacity="0.8" cx="3.81841" cy="3.81841" r="3.81841" transform="matrix(1 0 0 -1 56.5312 245.195)" fill="#E83939"/>
<circle opacity="0.8" cx="3.81841" cy="3.81841" r="3.81841" transform="matrix(1 0 0 -1 274.285 211.926)" fill="#E83939"/>
<circle opacity="0.8" cx="3.81841" cy="3.81841" r="3.81841" transform="matrix(1 0 0 -1 155.29 241.377)" fill="#E83939"/>
<circle opacity="0.1" cx="100.067" cy="34.2393" r="24.9174" fill="white"/>
<circle opacity="0.1" cx="15.3196" cy="146.737" r="15.3196" fill="white"/>
</svg>
